<?xml version="1.0" encoding="utf-8"?>
<!-- Generator: Adobe Illustrator 27.9.0, SVG Export Plug-In . SVG Version: 6.00 Build 0)  -->
<svg version="1.1" id="Layer_1" xmlns="http://www.w3.org/2000/svg" xmlns:xlink="http://www.w3.org/1999/xlink" x="0px" y="0px"
	 viewBox="0 0 1920 441.68" style="enable-background:new 0 0 1920 441.68;" xml:space="preserve">
<style type="text/css">
	.st0{fill-rule:evenodd;clip-rule:evenodd;fill:#665148;}
</style>
<path class="st0" d="M1327.82,440.86c28.21,0,51.42-8.01,67.12-23.15c15.57-15.02,23.79-37.03,23.79-63.66v-118.4
	c0.44-6.52,5.49-11.24,12.04-11.24h4.76c1.87,0,3.39-1.52,3.39-3.39v-3.08c0-0.9-0.36-1.76-0.99-2.39c-0.64-0.64-1.5-0.99-2.4-0.99
	l-65.72,0c-1.87,0-3.39,1.52-3.39,3.39v3.08c0,1.87,1.52,3.39,3.39,3.39h4.76c6.68,0,11.73,4.83,12.05,11.49v121.2
	c-0.09,38.86-18.33,61.15-50.05,61.15c-31.71,0-49.89-23.73-49.89-65.11V235.86c0.31-6.64,5.35-11.45,12.02-11.45h4.76
	c1.87,0,3.39-1.52,3.39-3.39v-3.08c0-1.87-1.52-3.39-3.39-3.39h-100.26c-1.87,0-3.39,1.52-3.39,3.39v3.08
	c0,1.87,1.52,3.39,3.39,3.39h4.76c6.75,0,11.94,5.11,12.06,11.84v118.34c-0.02,27.41,8.92,48.75,26.55,63.42
	C1264.82,433.17,1292.15,440.86,1327.82,440.86z M133.39,181.2c0,0-33.93,0.68-56.93-35.86l-10.44,4.63l46.65,43.58
	c17.24,5.56,27.06,4.1,27.06,4.1H203v-9.73c0,0,0.22-3.68-1.17-6.71H133.39z M189.64,150.58c-1.51,0-2.96,0.61-4.02,1.68
	c-1.06,1.08-1.65,2.53-1.63,4.04l0.06,3.9c0.04,3.09,2.56,5.57,5.65,5.57h6.84c9.33,0,17.07,8.13,17.25,18.01v119.73L46.28,146.79
	l-0.18-0.2c-1.07-1.18-2.59-1.85-4.18-1.85h-3.66c-1.76,0-3.41,0.82-4.48,2.21c-1.07,1.39-1.43,3.2-0.98,4.9
	c0.05,0.18,4.71,17.99,4.71,47.3l0,202.66c-0.18,9.98-7.92,18.09-17.25,18.09h-6.85c-3.09,0-5.6,2.48-5.65,5.56l-0.06,3.9
	c-0.02,1.51,0.56,2.97,1.62,4.05c1.06,1.08,2.51,1.68,4.02,1.68h135.76c1.51,0,2.96-0.61,4.02-1.68c1.06-1.08,1.65-2.53,1.63-4.04
	l-0.06-3.9c-0.04-3.09-2.56-5.56-5.65-5.56h-6.85c-9.33,0-17.07-8.12-17.25-18.01v-120.2l168.32,157.34
	c1.05,0.98,2.43,1.52,3.86,1.52h3.37c1.76,0,3.42-0.82,4.49-2.22c0.41-0.54,0.72-1.14,0.91-1.78h57.05c1.87,0,3.39-1.52,3.39-3.39
	v-3.05c0-1.87-1.52-3.39-3.39-3.39h-2.57c-3.17,0-6.3-1.62-7.97-4.12c-1.81-2.72-1.85-6.34-0.11-10.51l10.87-26.59h57.81
	l10.53,26.51c1.63,4.28,1.48,7.99-0.42,10.75c-1.66,2.41-4.7,3.96-7.73,3.96h-2.57c-1.87,0-3.39,1.52-3.39,3.39v3.05
	c0,1.87,1.52,3.39,3.39,3.39h110.77c0.11,0,0.22-0.01,0.32-0.02h95.94c0.91,0,1.78-0.36,2.41-1.01c0.64-0.65,0.99-1.52,0.97-2.43
	l-0.05-3.07c-0.03-1.85-1.54-3.34-3.39-3.34h-3.61c0,0-0.01,0-0.01,0c-8.48,0-15.25-7.03-15.41-15.94V237.3h9.58
	c18.67,0,28.74,12.57,29.93,37.37c0.22,4.38-0.08,7.23-0.36,9.99c-0.07,0.71-0.15,1.41-0.21,2.1c-1.94,15.91-8.36,34.84-27.89,34.84
	h-4.7c-1.87,0-3.39,1.52-3.39,3.39v2.91c0,1.38,0.84,2.62,2.12,3.14c4.62,1.87,9.45,4.83,13.24,18.5c1.06,3.68,1.9,7.81,2.79,12.17
	c2.32,11.36,4.96,24.24,12.7,38.04c18.88,33.88,48.49,36.75,82.42,36.79c0.12,0.01,0.24,0.02,0.36,0.02h65.25
	c1.87,0,3.39-1.52,3.39-3.39v-3.05c0-1.87-1.52-3.39-3.39-3.39h-2.57c-3.17,0-6.3-1.62-7.97-4.12c-1.81-2.72-1.85-6.34-0.11-10.51
	l10.87-26.59h57.81l10.53,26.51c1.63,4.28,1.48,7.99-0.42,10.75c-1.66,2.41-4.7,3.96-7.74,3.96h-2.57c-1.87,0-3.39,1.52-3.39,3.39
	v3.05c0,1.87,1.52,3.39,3.39,3.39h148.61c1.87,0,3.39-1.52,3.39-3.39v-2.9c0-1.87-1.52-3.39-3.39-3.39h-4.55
	c-4.06,0-7.91-4.61-8-9.55l9.16-77.85l70.8,103c0.63,0.92,1.68,1.47,2.79,1.47h2.76c0.92,0,1.8-0.37,2.44-1.03
	c0.64-0.66,0.98-1.55,0.95-2.47c-0.52-15.13,11.4-33.54,11.54-33.76l44.62-69.67l10.02,80.33c-0.1,4.93-3.94,9.54-8,9.54h-4.55
	c-1.87,0-3.39,1.52-3.39,3.39v2.9c0,1.87,1.52,3.39,3.39,3.39h103.5c1.87,0,3.39-1.52,3.39-3.39v-3.07c0-1.87-1.52-3.39-3.39-3.39
	h-4.65c-9.18,0-16.22-6.43-17.94-16.39l-26.39-197.03c-0.22-1.68-1.66-2.94-3.36-2.94h-2.67c-1.16,0-2.23,0.59-2.86,1.56
	l-87.42,136.82l-95.1-137.02c-0.63-0.91-1.67-1.46-2.78-1.46h-2.71c-1.7,0-3.14,1.26-3.36,2.95l-25.66,197.2
	c-0.77,6.07-3.77,10.88-8.51,13.71c-4.62-2.54-8.66-6.83-11.77-12.5l-92.52-202.45c-0.55-1.21-1.76-1.98-3.08-1.98h-2.63
	c-1.73,0-3.17,1.29-3.37,3.01c-0.9,7.96-9.4,29.14-16.41,44.88l-68.13,156.92c-1.66,3.05-3.64,5.69-5.89,7.89
	c-3.51-3.2-7.32-7.9-12.3-15.12c-8.82-12.54-18.71-30.46-22.93-38.12c-0.89-1.62-1.5-2.73-1.74-3.12
	c-3.6-6.31-12.72-20.06-27.65-28.23c36.18-11.38,39.2-47.63,39.2-59.25c0-39.66-28.73-61.5-80.91-61.5l-114.18,0.02
	c-0.91,0-1.78,0.36-2.41,1.01c-0.64,0.65-0.99,1.52-0.97,2.43l0.05,3.06c0.03,1.85,1.54,3.34,3.39,3.34h3.76c0.01,0,0.02,0,0.03,0
	c8.24,0,15.07,7.16,15.23,15.92l0,170.49c-0.2,8.38-6.48,15.29-14.33,15.82c-7.75-0.68-14.95-6.14-19.81-15.01l-92.52-202.45
	c-0.55-1.21-1.76-1.98-3.08-1.98h-2.63c-1.72,0-3.17,1.29-3.37,3.01c-0.9,7.96-9.4,29.14-16.41,44.88l-68.13,156.92
	c-4.17,7.67-10.36,12.74-17.08,14.24c-1.37-7.81-3.18-21.8-3.18-41.12V183.55c0.34-9.97,7.9-17.78,17.24-17.78h6.85
	c3.09,0,5.6-2.48,5.65-5.56l0.06-3.9c0.02-1.51-0.56-2.97-1.63-4.04c-1.06-1.08-2.51-1.68-4.02-1.68H189.64z M362.58,74.96
	c-15.53-4.65-31.04-4.6-49.46-1.99c-21.28,3.02-36.05,12.33-45.7,21.28h95.36c-0.16-1.79-0.29-3.61-0.38-5.47
	C362.19,84.02,362.25,79.41,362.58,74.96z M476.06,13.54c23.34,0.02,40.96,10.4,50.08,42.18h1.88l2.22-43.18
	C517.7,7.23,497.6,2.26,472.3,2.26c-62.35,0-98.94,30.48-98.94,81.96c0,52.61,37.95,82.18,98.75,82.41
	c35.89,0,54.51-13.05,63.48-27.98l-5.38-41.08l-1.87,0c-8.26,43.2-19.73,57.78-56.22,57.78c-30.83-0.89-49.05-27.56-49.05-71.81
	C423.06,39.55,442.74,13.54,476.06,13.54z M624.94,5.41l-88.26,0.01l0.04,2.24h2.9c7.86-0.02,14.28,6.32,14.43,14.18V147.1
	c-0.2,7.81-6.59,14.09-14.46,14.09h-2.86l-0.04,2.26h81.2l-0.04-2.26h-2.79c-7.98,0-14.39-6.33-14.54-14.19V17.15h10.02
	c13.55,0,24.62,7.45,25.75,29.8c0.23,4.29-0.23,6.77-0.45,9.26c-2.48,19.42-11.75,27.82-24.17,27.82h-3.64v2.14
	c4.31,1.66,8.61,4.37,11.77,15.2c2.94,9.71,3.61,22.58,11.75,36.35c13.78,23.48,34.79,25.74,61.89,25.74h28.21v-2.26
	c-10.8-0.22-16-3.15-26.16-17.15c-8.36-11.29-18.07-28.67-19.2-30.48c-5.42-9.03-14.91-18.97-27.49-22.67
	c28.17-4.2,36.07-25.65,36.07-42.81C684.87,13.31,652.34,5.41,624.94,5.41z M856.62,5.42l-56.28,0v2.26h2.85
	c6.15,0,11.44,7.58,7.92,13.98l-32.1,55.84l-31.05-55.85c-3.28-6.4,1.33-13.98,7.93-13.98h2.85V5.42h-87.27v2.25h3.16
	c9.24,0,18.03,6.1,22.46,12.93l42.96,70.1v56.45c-0.22,7.8-6.6,14.07-14.47,14.07h-2.86l-0.04,2.26h81.04l-0.04-2.26h-2.86
	c-7.91,0-14.32-6.33-14.47-14.2V90.82l44.33-69.87c4.58-6.97,13.28-13.27,22.77-13.27h3.16V5.42z M942.23,73.1l-42.22-19.48
	c-11.23-5.07-20.94-10.27-20.04-21.1c0.9-11.06,12.2-18.97,30.72-18.97c22.36,0,35.92,11.29,36.01,27.76h2.18l4.87-36.74h-17.58
	c-13.11-1.31-30-2.32-38.13-2.32c-30.27,0-49.47,14.22-52.63,40.41c-2.71,21.45,7,39.06,27.69,48.63l36.83,17.01
	c17.25,7.97,24.03,15.42,24.01,24.79c0.02,11.62-10.14,22.23-31.83,22.23c-31.63,0-50.6-22.35-49.09-46.07h-1.99
	c-7.51,9.67-12.2,31.73-7.13,42.76c7.83,8.05,27.25,14.59,53.46,14.59c42.69,0,68.67-17.38,70.93-49.67
	C969.88,95.05,959.03,80.83,942.23,73.1z M1362.07,111.19c-7.02,25.78-25.2,40.85-46.88,40.85h-16.2V21.86
	c0.16-7.86,6.57-14.2,14.48-14.2h2.86l0.04-2.26h-81.05l0.04,2.26h2.86c7.91,0,14.32,6.33,14.47,14.2v125.15
	c-0.11,5.82-3.66,10.8-8.7,13c-4.56-1.71-9.04-5.31-12.45-11.26L1159.96,0h-2.04c-0.9,7.61-10.23,28.01-12.89,33.67l-52.71,115.33
	c-4.47,7.87-11.18,11.55-17.13,12.12c-7.12-0.76-12.69-6.67-12.91-13.93V16.48h22.19c18.26,0.36,29.03,11.25,28.98,29.26v1.77
	l2.28,0.03V1.09c-4.14,1.75-16.88,3.96-26.58,4.1H989.01c-9.7-0.14-22.44-2.36-26.58-4.1v46.45l2.28-0.03v-1.77
	c-0.04-18.02,10.72-28.9,28.98-29.26h22.22v130.9c-0.34,7.69-6.68,13.83-14.46,13.83h-2.86l-0.04,2.26h81.08l0,0h42.33v-2.24h-1.99
	c-5.83,0-12.65-5.14-8.67-14.17l9.07-21.07h48.23l8.81,21.07c3.61,9.04-2.92,14.17-8.75,14.17h-1.99v2.24h68.63l0,0h120.37
	l8.65-52.28L1362.07,111.19z M1468.17,73.1l-42.22-19.48c-11.23-5.07-20.94-10.27-20.04-21.1c0.9-11.06,12.2-18.97,30.72-18.97
	c22.36,0,35.92,11.29,36.01,27.76h2.18l4.88-36.74h-17.58c-13.11-1.31-30-2.32-38.13-2.32c-30.27,0-49.47,14.22-52.63,40.41
	c-2.71,21.45,7,39.06,27.69,48.63l36.83,17.01c17.25,7.97,24.03,15.42,24.01,24.79c0.02,11.62-10.14,22.23-31.83,22.23
	c-31.63,0-50.6-22.35-49.09-46.07h-1.99c-7.51,9.67-12.2,31.73-7.13,42.76c7.83,8.05,27.25,14.59,53.46,14.59
	c42.69,0,68.67-17.38,70.93-49.67C1495.82,95.05,1484.97,80.83,1468.17,73.1z M1565.97,87.34c-24.44,0-39.03,13.51-39.03,36.14
	c0,22.63,14.59,36.14,39.03,36.14c24.44,0,39.03-13.51,39.03-36.14C1605,100.86,1590.41,87.34,1565.97,87.34z M1657.67,88.65
	c0-0.58-0.29-1.11-0.77-1.43c-0.48-0.32-1.09-0.36-1.62-0.13c-1.34,0.59-6.26,1.54-10.03,1.58h-39.77c-0.46,0-0.89,0.18-1.21,0.51
	c-0.32,0.32-0.5,0.77-0.49,1.22l0.01,0.94c0.01,0.93,0.77,1.68,1.7,1.68h1.14c2.18,0,4,1.91,4.05,4.23v52.44
	c-0.04,2.36-1.86,4.28-4.05,4.28h-1.14c-0.93,0-1.69,0.75-1.7,1.68l-0.01,0.95c-0.01,0.46,0.17,0.9,0.49,1.22
	c0.32,0.33,0.76,0.51,1.21,0.51h32.24c0.46,0,0.89-0.18,1.21-0.51c0.32-0.32,0.5-0.77,0.49-1.22l-0.02-0.95
	c-0.02-0.93-0.77-1.68-1.7-1.68h-1.14c-2.19,0-4.01-1.92-4.05-4.25v-21.7l8.15,0c4.71,0.14,7.98,3.69,7.97,8.63v0.45
	c0,0.93,0.75,1.69,1.68,1.7l0.88,0.01c0.46-0.02,0.89-0.17,1.22-0.49c0.32-0.32,0.51-0.76,0.51-1.21v-26.33
	c0-0.46-0.18-0.89-0.51-1.21c-0.32-0.32-0.76-0.49-1.22-0.49l-0.88,0.01c-0.93,0.01-1.68,0.77-1.68,1.7v0.45
	c0.02,4.99-3.3,8.54-8.03,8.63h-8.09V96.86l11.26,0c6.2,0.24,9.6,3.98,9.58,10.55v0.74c0,0.93,0.75,1.69,1.68,1.7l0.91,0.01
	c0.49,0.01,0.9-0.17,1.22-0.49c0.33-0.32,0.51-0.76,0.51-1.21L1657.67,88.65z M1670.44,181.2H958.62h-2.93H312.59
	c-0.6,2.61-0.69,5.49-0.69,5.49l0.03,10.95h91.65c1.28-0.59,2.75-1.01,4.44-1.22c3.61-0.43,6.56,0.15,8.94,1.22h413.44
	c1.16-0.55,2.51-0.97,4.1-1.22c4.59-0.72,8.16-0.04,10.92,1.22h109.54h4.35h711.11V181.2z M1674.78,215.56
	c-0.64-0.64-1.51-1.01-2.41-1.01H1565.4c-0.91,0-1.78,0.36-2.41,1.01c-0.64,0.65-0.99,1.52-0.98,2.43l0.04,3.07
	c0.03,1.85,1.54,3.34,3.39,3.34h5.39c7.93,0,14.5,6.87,14.65,15.25v96.77L1451.7,211.25l-0.17-0.19c-0.64-0.7-1.55-1.11-2.51-1.11
	h-2.88c-1.05,0-2.05,0.49-2.69,1.33c-0.64,0.83-0.86,1.92-0.59,2.94c0.04,0.14,3.75,14.28,3.75,37.53v159.67
	c-0.16,8.43-6.73,15.3-14.65,15.3h-5.4c-1.85,0-3.36,1.49-3.39,3.34l-0.05,3.08c-0.01,0.91,0.34,1.78,0.97,2.43
	c0.64,0.65,1.51,1.01,2.42,1.01h106.95c0.91,0,1.78-0.36,2.41-1.01c0.64-0.65,0.99-1.52,0.98-2.43l-0.04-3.08
	c-0.03-1.85-1.54-3.34-3.39-3.34h-5.39c-7.93,0-14.5-6.87-14.65-15.25v-97.13l134.38,125.61c0.63,0.59,1.46,0.91,2.31,0.91h2.65
	c1.06,0,2.05-0.49,2.69-1.33c0.64-0.84,0.85-1.93,0.57-2.95c-0.04-0.14-3.71-13.85-3.71-38.33l0-158.75
	c0.26-8.46,6.69-15.1,14.64-15.1h5.39c1.85,0,3.36-1.49,3.39-3.34l0.04-3.07C1675.77,217.08,1675.42,216.21,1674.78,215.56z
	 M1907.48,153.6c0-1.98-1.08-3.8-2.78-4.82c-1.7-1.02-3.85-1.06-5.6-0.13c-3.12,1.66-21.76,4.4-37.12,4.4h-129.48
	c-0.08,0-0.17,0-0.25,0c-16,0-37.01-3.99-42.9-6.61c-1.75-0.78-3.77-0.62-5.37,0.43c-1.6,1.04-2.57,2.82-2.57,4.73V233
	c0,1.51,0.61,2.96,1.69,4.02c1.08,1.06,2.52,1.69,4.05,1.62l3.8-0.06c3.08-0.05,5.56-2.56,5.56-5.64v-3.11
	c-0.07-28.67,15.38-45.29,42.31-45.61h58.7l-120.84,245.64c-0.37,0.74-0.56,1.56-0.58,2.39l-0.07,3.69
	c-0.03,1.51,0.56,2.98,1.62,4.06c1.06,1.08,2.51,1.69,4.03,1.69h214.51c2.78,0,5.15-2.02,5.58-4.77l14.4-91.59
	c0.26-1.63-0.22-3.29-1.29-4.55c-1.07-1.25-2.64-1.97-4.29-1.97c0,0,0,0-0.01,0l-3.77,0c-2.57,0-4.82,1.74-5.46,4.23
	c-10.8,41.73-38.6,67.65-72.55,67.65h-44.09l122.21-251.19c0.37-0.77,0.57-1.61,0.57-2.47V153.6z M1565.97,151.5
	c-9.89,0-15.8-10.47-15.8-28.01c0-17.54,5.91-28.01,15.8-28.01c9.89,0,15.8,10.47,15.8,28.01
	C1581.77,141.03,1575.86,151.5,1565.97,151.5z M1145.01,69.54l18.88,45.16h-38.58L1145.01,69.54z M412.18,363.37h-39.84l20.34-49.09
	L412.18,363.37z M839.79,363.37h-39.84l20.34-49.09L839.79,363.37z"/>
</svg>
